<svg xmlns="http://www.w3.org/2000/svg" viewBox="0 0 128 128" width="128" height="128" role="img">
    <g transform="matrix(0.047903, 0, 0, 0.047903, -164.096085, -42.883347)">
        <path fill="#ff2525" fill-rule="evenodd" clip-rule="evenodd"
            d="
      M4677.02 2333.32
      C4856.92 2396.47 4985.16 2556.56 5005 2742
      C5070 3305 4370 3443 4020 3050
      C3835 2800 3840 2458 4035 2213
      C4225 1987 4332 1702 4337 1410
      C4578 1715 4535 2096 4317 2410
      C4265 2475 4260 2560 4305 2635
      C4348 2708 4430 2745 4505 2735
      C4580 2725 4655 2663 4677 2585
      C4705 2502 4705 2416 4677 2333
      M4910 895
      C4744 1988 5820 2118 5608 3060
      C5526 3303 5220 3490 4970 3545
      C4720 3605 4460 3530 4278 3348
      C4460 3430 4674 3418 4851 3318
      C5140 3152 5255 2830 5120 2535
      C4897 2042 4302 1636 4910 895
      Z
    " />
    </g>
</svg>